<svg width="1788" height="1954" viewBox="0 0 1788 1954" fill="none" xmlns="http://www.w3.org/2000/svg">
<g clip-path="url(#clip0_1_156)">
<path d="M82.5244 32.5874C649.138 30.8252 1215.75 27.8191 1782.47 27.5082C1785.5 592.648 1785.18 1157.79 1788 1722.93C1578.29 1724.07 1368.57 1724.17 1158.86 1724.58C1153.01 1724.58 1145.71 1724.69 1142.89 1730.91C1094.14 1804.92 1041.42 1876.13 993.824 1950.97C864.175 1951.7 734.422 1954.5 604.773 1952.11C603.833 1877.17 605.295 1802.12 604.251 1727.18C431.908 1726.76 259.669 1728.42 87.4306 1728.01C84.4034 1162.97 83.0463 597.623 82.5244 32.5874ZM315.516 260.115C315.308 672.671 316.56 1085.33 318.648 1497.78C488.903 1497.89 659.159 1497.06 829.31 1496.44C831.189 1572.42 828.579 1648.5 831.397 1724.48C844.968 1724.48 858.642 1724.59 872.213 1724.38C923.362 1648.4 974.408 1572.52 1024.93 1496.23C1202.49 1494.67 1380.06 1494.26 1557.51 1494.05C1556.16 1081.08 1557.41 668.11 1553.76 255.243C1141.22 258.56 728.263 256.487 315.516 260.115Z" fill="#FF112E"/>
<path d="M544.02 399.327C677.739 398.29 811.459 399.016 945.075 397.668C1021.38 399.016 1100.51 405.235 1169.51 440.582C1311.68 507.649 1392.37 678.372 1351.77 829.712C1327.03 932.851 1250.41 1022.31 1152.18 1063.87C1217.32 1161.83 1286.11 1257.4 1352.5 1354.42C1243.93 1354.94 1135.27 1355.67 1026.81 1355.25C972.633 1283.52 923.675 1206.51 871.377 1132.91C858.955 1125.96 842.88 1131.56 829.101 1129.8C828.996 1205.16 829.309 1280.52 829.623 1355.88C735.465 1356.39 641.204 1356.5 547.047 1356.6C545.585 1037.44 544.541 718.384 544.02 399.327ZM828.057 644.165C828.37 724.292 827.848 804.419 828.579 884.547C903.215 877.29 993.302 906.522 1053.32 848.681C1116.9 790.115 1089.34 672.464 1005.31 649.141C947.371 637.324 887.035 646.031 828.057 644.165Z" fill="#FF112E"/>
</g>
<g clip-path="url(#clip1_1_156)">
<path d="M0 5.07921C566.613 3.31703 1133.23 0.310972 1699.94 0C1702.97 565.139 1702.66 1130.28 1705.48 1695.42C1495.76 1696.56 1286.05 1696.66 1076.34 1697.08C1070.49 1697.08 1063.18 1697.18 1060.36 1703.4C1011.62 1777.41 958.9 1848.62 911.299 1923.46C781.65 1924.19 651.897 1926.99 522.249 1924.6C521.309 1849.66 522.771 1774.61 521.727 1699.67C349.384 1699.25 177.145 1700.91 4.90619 1700.5C1.87897 1135.46 0.521935 570.115 0 5.07921ZM232.992 232.607C232.783 645.163 234.036 1057.82 236.124 1470.27C406.379 1470.38 576.634 1469.55 746.785 1468.93C748.664 1544.91 746.054 1620.99 748.873 1696.97C762.443 1696.97 776.118 1697.08 789.688 1696.87C840.838 1620.89 891.883 1545.01 942.407 1468.72C1119.97 1467.17 1297.53 1466.75 1474.99 1466.54C1473.63 1053.57 1474.89 640.602 1471.23 227.735C1058.69 231.052 645.739 228.979 232.992 232.607Z" fill="#0055FF"/>
<path d="M461.495 371.819C595.215 370.782 728.935 371.508 862.55 370.16C938.857 371.508 1017.98 377.727 1086.98 413.074C1229.16 480.141 1309.85 650.864 1269.24 802.204C1244.5 905.343 1167.88 994.799 1069.65 1036.37C1134.79 1134.32 1203.58 1229.89 1269.97 1326.92C1161.41 1327.43 1052.74 1328.16 944.285 1327.75C890.108 1256.02 841.151 1179 788.853 1105.4C776.431 1098.46 760.355 1104.05 746.576 1102.29C746.472 1177.65 746.785 1253.01 747.098 1328.37C652.941 1328.89 558.679 1328.99 464.522 1329.09C463.061 1009.93 462.017 690.876 461.495 371.819ZM745.532 616.657C745.846 696.784 745.324 776.911 746.054 857.038C820.691 849.782 910.777 879.014 970.8 821.173C1034.37 762.607 1006.81 644.956 922.782 621.633C864.847 609.816 804.511 618.523 745.532 616.657Z" fill="#0055FF"/>
</g>
<defs>
<clipPath id="clip0_1_156">
<rect width="1705.48" height="1925.54" fill="white" transform="translate(82.5244 27.5082)"/>
</clipPath>
<clipPath id="clip1_1_156">
<rect width="1705.48" height="1925.54" fill="white"/>
</clipPath>
</defs>
</svg>
